<svg width="18" height="18" viewBox="0 0 18 18" fill="none" xmlns="http://www.w3.org/2000/svg">
<g id="icon/android" clip-path="url(#clip0)">
<g id="Group">
<path id="Vector" d="M2.4423 5.86926H2.39619C1.80511 5.86926 1.32316 6.35274 1.32316 6.94229V11.6141C1.32316 12.2059 1.80511 12.6879 2.39619 12.6879H2.44308C3.03417 12.6879 3.51611 12.2044 3.51611 11.6141V6.94225C3.51533 6.35274 3.03264 5.86926 2.4423 5.86926Z" fill="#93B93E"/>
<path id="Vector_2" d="M4.02958 13.4174C4.02958 13.9601 4.47307 14.402 5.01573 14.402H6.06955V16.9255C6.06955 17.5181 6.55302 18 7.14258 18H7.18869C7.78056 18 8.26325 17.5173 8.26325 16.9255V14.402H9.73597V16.9255C9.73597 17.5181 10.221 18 10.8105 18H10.8559C11.4477 18 11.9297 17.5173 11.9297 16.9255V14.402H12.9842C13.5261 14.402 13.9696 13.9601 13.9696 13.4174V6.04077H4.02958V13.4174Z" fill="#93B93E"/>
<path id="Vector_3" d="M11.4753 1.56725L12.3124 0.275187C12.3662 0.193694 12.3424 0.0822682 12.2601 0.0292101C12.1787 -0.0245962 12.0672 -0.00228976 12.0141 0.0814842L11.1464 1.41816C10.4953 1.15145 9.76821 1.00157 9.00031 1.00157C8.23167 1.00157 7.50606 1.15145 6.85351 1.41816L5.98726 0.0814842C5.93424 -0.00228976 5.822 -0.0245962 5.73975 0.0292101C5.65751 0.0822325 5.63367 0.193694 5.68748 0.275187L6.52529 1.56725C5.0149 2.30746 3.99646 3.70254 3.99646 5.30284C3.99646 5.40122 4.00263 5.49807 4.01107 5.59414H13.9903C13.9987 5.49807 14.0041 5.40122 14.0041 5.30284C14.0042 3.70254 12.9849 2.30746 11.4753 1.56725ZM6.68671 3.88085C6.42153 3.88085 6.2063 3.66716 6.2063 3.40123C6.2063 3.1353 6.42153 2.92235 6.68671 2.92235C6.95343 2.92235 7.16712 3.13526 7.16712 3.40123C7.16712 3.6672 6.95189 3.88085 6.68671 3.88085ZM11.3132 3.88085C11.048 3.88085 10.8328 3.66716 10.8328 3.40123C10.8328 3.1353 11.048 2.92235 11.3132 2.92235C11.5791 2.92235 11.7928 3.13526 11.7928 3.40123C11.7928 3.66716 11.5791 3.88085 11.3132 3.88085Z" fill="#93B93E"/>
<path id="Vector_4" d="M15.6029 5.86926H15.5583C14.9672 5.86926 14.4837 6.35274 14.4837 6.94229V11.6141C14.4837 12.2059 14.968 12.6879 15.5583 12.6879H15.6037C16.1955 12.6879 16.6767 12.2044 16.6767 11.6141V6.94225C16.6767 6.35274 16.194 5.86926 15.6029 5.86926Z" fill="#93B93E"/>
</g>
</g>
<defs>
<clipPath id="clip0">
<rect width="18" height="18" fill="white"/>
</clipPath>
</defs>
</svg>
