<svg width="18" height="18" viewBox="0 0 18 18" fill="none" xmlns="http://www.w3.org/2000/svg">
<g id="icon/apple">
<path id="Vector" d="M16.6122 13.9417C16.3405 14.5668 16.019 15.1421 15.6465 15.6711C15.1387 16.3922 14.723 16.8913 14.4025 17.1685C13.9058 17.6234 13.3737 17.8564 12.8038 17.8697C12.3947 17.8697 11.9013 17.7537 11.327 17.5185C10.7508 17.2844 10.2213 17.1685 9.73715 17.1685C9.22937 17.1685 8.68478 17.2844 8.10227 17.5185C7.51887 17.7537 7.0489 17.8763 6.68957 17.8885C6.14309 17.9117 5.59839 17.672 5.05469 17.1685C4.70767 16.867 4.27361 16.3502 3.75363 15.618C3.19574 14.8362 2.73707 13.9296 2.37774 12.896C1.99291 11.7795 1.8 10.6984 1.8 9.6518C1.8 8.45288 2.0601 7.41882 2.58108 6.55229C2.99052 5.85626 3.53522 5.30721 4.21696 4.90414C4.89869 4.50108 5.63531 4.29568 6.42858 4.28254C6.86264 4.28254 7.43184 4.41627 8.13919 4.67909C8.84454 4.94279 9.29744 5.07652 9.49601 5.07652C9.64446 5.07652 10.1476 4.92015 11.0005 4.60841C11.8071 4.31931 12.4878 4.19961 13.0455 4.24676C14.5567 4.36823 15.692 4.96156 16.447 6.03051C15.0955 6.84614 14.4269 7.98853 14.4402 9.45403C14.4524 10.5955 14.8682 11.5454 15.6853 12.2997C16.0556 12.6497 16.4692 12.9203 16.9293 13.1124C16.8295 13.4006 16.7242 13.6767 16.6122 13.9417ZM13.1464 0.3579C13.1464 1.2526 12.8182 2.08799 12.1641 2.86121C11.3747 3.78042 10.4199 4.31158 9.38448 4.22777C9.37128 4.12043 9.36363 4.00746 9.36363 3.88875C9.36363 3.02983 9.73904 2.11062 10.4057 1.35905C10.7385 0.978509 11.1618 0.662098 11.6752 0.409691C12.1874 0.161049 12.6719 0.0235434 13.1275 0C13.1408 0.119605 13.1464 0.239222 13.1464 0.357889V0.3579Z" fill="#292929"/>
</g>
</svg>
