<svg width="18" height="18" viewBox="0 0 18 18" fill="none" xmlns="http://www.w3.org/2000/svg">
<g id="icon/chrome-colored">
<path id="Subtract" d="M9.00002 11.55C8.07409 11.55 7.26342 11.0564 6.8167 10.3181C6.80932 10.3015 6.80085 10.2851 6.79126 10.269L6.74533 10.1922C6.5568 9.83641 6.45002 9.43065 6.45002 8.99995C6.45002 7.59162 7.59169 6.44995 9.00002 6.44995C10.4083 6.44995 11.55 7.59162 11.55 8.99995C11.55 9.4474 11.4348 9.86793 11.2323 10.2335C11.223 10.2463 11.2141 10.2597 11.206 10.2738L11.1404 10.3867C10.6858 11.0868 9.897 11.55 9.00002 11.55Z" fill="#508EF2"/>
<path id="Subtract_2" d="M2.23712 4.40576C1.34589 5.71511 0.824963 7.29676 0.824963 9.00008C0.824963 12.9312 3.59963 16.2142 7.29736 16.9975L10.0322 12.293C9.70631 12.395 9.35959 12.4501 9.00003 12.4501C7.68515 12.4501 6.54208 11.7145 5.95986 10.6324L2.23712 4.40576Z" fill="#25A062"/>
<path id="Subtract_3" d="M16.7694 6.44995H11.3238C12.0158 7.08091 12.45 7.98972 12.45 8.99995C12.45 9.68447 12.2507 10.3224 11.9068 10.8589L8.25465 17.1415C8.50011 17.1636 8.74871 17.175 8.99996 17.175C13.5149 17.175 17.175 13.5149 17.175 8.99998C17.175 8.10954 17.0326 7.25236 16.7694 6.44995Z" fill="#FECD50"/>
<path id="Subtract_4" d="M2.82763 3.63957L5.61928 8.30887C5.93939 6.73471 7.33136 5.55005 9.00002 5.55005H16.4135C15.1125 2.75929 12.2821 0.825073 8.99996 0.825073C6.53589 0.825073 4.32644 1.91524 2.82763 3.63957Z" fill="#DB524A"/>
</g>
</svg>
