<svg width="18" height="18" viewBox="0 0 18 18" fill="none" xmlns="http://www.w3.org/2000/svg">
<path id="&#244;&#128;&#129;&#163;" d="M8.97532 17.3634C13.6299 17.3634 17.4786 13.5148 17.4786 8.86015C17.4786 4.19732 13.6217 0.348633 8.9671 0.348633C4.31249 0.348633 0.472031 4.19732 0.472031 8.86015C0.472031 13.5148 4.32071 17.3634 8.97532 17.3634ZM7.8569 13.1529C7.5444 13.1529 7.28946 13.0131 7.0592 12.7335L4.69078 9.84699C4.53453 9.66607 4.46052 9.46047 4.46052 9.26311C4.46052 8.81903 4.80591 8.48186 5.23354 8.48186C5.48848 8.48186 5.70229 8.58877 5.90789 8.83547L7.824 11.2615L11.5329 5.34041C11.722 5.04436 11.9523 4.90455 12.2155 4.90455C12.6266 4.90455 13.0131 5.19238 13.0131 5.62824C13.0131 5.82561 12.9145 6.0312 12.7993 6.21212L8.6217 12.7088C8.43256 13.0049 8.1694 13.1529 7.8569 13.1529Z" fill="#F5620F"/>
</svg>
